# xmcd
#
# Track frame offsets:
#	150
#	22725
#	43304
#	89812
#	108970
#	148192
#	166819
#	190294
#
# Disc length: 3181 seconds
# Revision: 0
# Processed by: cddbd v1.5.2PL0 Copyright (c) Steve Scherf et al.
# Submitted via: dBpowerAMP V12.0
#
DISCID=6a0c6b08
DTITLE=Good Medicine - Drive It to the Stars
DYEAR=2012
DGENRE=Americana
TTITLE0=Drive It to the Stars
TTITLE1=Much Too Much
TTITLE2=Picture Postcards
TTITLE3=Another Love
TTITLE4=Wastin' Time
TTITLE5=Montgomery Jam
TTITLE6=Portland
TTITLE7=Grapevine Moan
EXTD=
EXTT0=
EXTT1=
EXTT2=
EXTT3=
EXTT4=
EXTT5=
EXTT6=
EXTT7=
PLAYORDER=
